<svg height="556pt" viewBox="0.00 0.00 225.00 556.00" width="225pt" xmlns="http://www.w3.org/2000/svg" xmlns:xlink="http://www.w3.org/1999/xlink">
<g class="graph" id="graph0" transform="scale(1 1) rotate(0) translate(4 552)">
<title>G</title>
<polygon fill="white" points="-4,4 -4,-552 221,-552 221,4 -4,4" stroke="none"/>
<!-- 3134383806224 -->
<g class="node" id="node1"><title>3134383806224</title>
<polygon fill="none" points="45.5,-511.5 45.5,-547.5 171.5,-547.5 171.5,-511.5 45.5,-511.5" stroke="black"/>
<text font-family="Times New Roman,serif" font-size="14.00" text-anchor="middle" x="108.5" y="-525.8">input_3: InputLayer</text>
</g>
<!-- 3134383806952 -->
<g class="node" id="node2"><title>3134383806952</title>
<polygon fill="none" points="0,-438.5 0,-474.5 217,-474.5 217,-438.5 0,-438.5" stroke="black"/>
<text font-family="Times New Roman,serif" font-size="14.00" text-anchor="middle" x="108.5" y="-452.8">zero_padding2d_2: ZeroPadding2D</text>
</g>
<!-- 3134383806224&#45;&gt;3134383806952 -->
<g class="edge" id="edge1"><title>3134383806224-&gt;3134383806952</title>
<path d="M108.5,-511.313C108.5,-503.289 108.5,-493.547 108.5,-484.569" fill="none" stroke="black"/>
<polygon fill="black" points="112,-484.529 108.5,-474.529 105,-484.529 112,-484.529" stroke="black"/>
</g>
<!-- 3134383807064 -->
<g class="node" id="node3"><title>3134383807064</title>
<polygon fill="none" points="56,-365.5 56,-401.5 161,-401.5 161,-365.5 56,-365.5" stroke="black"/>
<text font-family="Times New Roman,serif" font-size="14.00" text-anchor="middle" x="108.5" y="-379.8">conv0: Conv2D</text>
</g>
<!-- 3134383806952&#45;&gt;3134383807064 -->
<g class="edge" id="edge2"><title>3134383806952-&gt;3134383807064</title>
<path d="M108.5,-438.313C108.5,-430.289 108.5,-420.547 108.5,-411.569" fill="none" stroke="black"/>
<polygon fill="black" points="112,-411.529 108.5,-401.529 105,-411.529 112,-411.529" stroke="black"/>
</g>
<!-- 3134373025720 -->
<g class="node" id="node4"><title>3134373025720</title>
<polygon fill="none" points="31.5,-292.5 31.5,-328.5 185.5,-328.5 185.5,-292.5 31.5,-292.5" stroke="black"/>
<text font-family="Times New Roman,serif" font-size="14.00" text-anchor="middle" x="108.5" y="-306.8">bn0: BatchNormalization</text>
</g>
<!-- 3134383807064&#45;&gt;3134373025720 -->
<g class="edge" id="edge3"><title>3134383807064-&gt;3134373025720</title>
<path d="M108.5,-365.313C108.5,-357.289 108.5,-347.547 108.5,-338.569" fill="none" stroke="black"/>
<polygon fill="black" points="112,-338.529 108.5,-328.529 105,-338.529 112,-338.529" stroke="black"/>
</g>
<!-- 3134383806280 -->
<g class="node" id="node5"><title>3134383806280</title>
<polygon fill="none" points="34.5,-219.5 34.5,-255.5 182.5,-255.5 182.5,-219.5 34.5,-219.5" stroke="black"/>
<text font-family="Times New Roman,serif" font-size="14.00" text-anchor="middle" x="108.5" y="-233.8">activation_1: Activation</text>
</g>
<!-- 3134373025720&#45;&gt;3134383806280 -->
<g class="edge" id="edge4"><title>3134373025720-&gt;3134383806280</title>
<path d="M108.5,-292.313C108.5,-284.289 108.5,-274.547 108.5,-265.569" fill="none" stroke="black"/>
<polygon fill="black" points="112,-265.529 108.5,-255.529 105,-265.529 112,-265.529" stroke="black"/>
</g>
<!-- 3134386907512 -->
<g class="node" id="node6"><title>3134386907512</title>
<polygon fill="none" points="26.5,-146.5 26.5,-182.5 190.5,-182.5 190.5,-146.5 26.5,-146.5" stroke="black"/>
<text font-family="Times New Roman,serif" font-size="14.00" text-anchor="middle" x="108.5" y="-160.8">max_pool: MaxPooling2D</text>
</g>
<!-- 3134383806280&#45;&gt;3134386907512 -->
<g class="edge" id="edge5"><title>3134383806280-&gt;3134386907512</title>
<path d="M108.5,-219.313C108.5,-211.289 108.5,-201.547 108.5,-192.569" fill="none" stroke="black"/>
<polygon fill="black" points="112,-192.529 108.5,-182.529 105,-192.529 112,-192.529" stroke="black"/>
</g>
<!-- 3134384077120 -->
<g class="node" id="node7"><title>3134384077120</title>
<polygon fill="none" points="54,-73.5 54,-109.5 163,-109.5 163,-73.5 54,-73.5" stroke="black"/>
<text font-family="Times New Roman,serif" font-size="14.00" text-anchor="middle" x="108.5" y="-87.8">flatten_1: Flatten</text>
</g>
<!-- 3134386907512&#45;&gt;3134384077120 -->
<g class="edge" id="edge6"><title>3134386907512-&gt;3134384077120</title>
<path d="M108.5,-146.313C108.5,-138.289 108.5,-128.547 108.5,-119.569" fill="none" stroke="black"/>
<polygon fill="black" points="112,-119.529 108.5,-109.529 105,-119.529 112,-119.529" stroke="black"/>
</g>
<!-- 3134170844016 -->
<g class="node" id="node8"><title>3134170844016</title>
<polygon fill="none" points="74,-0.5 74,-36.5 143,-36.5 143,-0.5 74,-0.5" stroke="black"/>
<text font-family="Times New Roman,serif" font-size="14.00" text-anchor="middle" x="108.5" y="-14.8">fc: Dense</text>
</g>
<!-- 3134384077120&#45;&gt;3134170844016 -->
<g class="edge" id="edge7"><title>3134384077120-&gt;3134170844016</title>
<path d="M108.5,-73.3129C108.5,-65.2895 108.5,-55.5475 108.5,-46.5691" fill="none" stroke="black"/>
<polygon fill="black" points="112,-46.5288 108.5,-36.5288 105,-46.5289 112,-46.5288" stroke="black"/>
</g>
</g>
</svg>